<svg xmlns="http://www.w3.org/2000/svg" viewBox="0 0 160 160"><defs><linearGradient id="pot" x2="0" y2="1"><stop stop-color="#ffd27b"/><stop offset="1" stop-color="#dc8636"/></linearGradient><linearGradient id="leaf" x2="1" y2="1"><stop stop-color="#bce764"/><stop offset="1" stop-color="#348e4c"/></linearGradient><filter id="shadow"><feDropShadow dy="5" stdDeviation="3" flood-opacity=".18"/></filter></defs><g filter="url(#shadow)"><path d="M43 100h74l-10 43H53z" fill="url(#pot)" stroke="#bf7936" stroke-width="3"/><rect x="36" y="93" width="88" height="18" rx="8" fill="#ffd899" stroke="#d8984b" stroke-width="3"/><path d="M80 98V34" stroke="#428b44" stroke-width="7" stroke-linecap="round"/><path d="M78 69C41 74 28 48 34 33c26-4 48 8 44 36zm5-13c-5-28 11-42 36-39 2 22-12 40-36 39zM78 91C49 95 38 80 40 66c19-2 36 8 38 25zm5-8c-1-23 14-32 34-28 0 18-11 31-34 28z" fill="url(#leaf)" stroke="#559c49" stroke-width="2"/><rect x="62" y="115" width="36" height="26" rx="7" fill="#fff9d8"/><text x="80" y="135" font-family="sans-serif" font-size="23" font-weight="900" text-anchor="middle" fill="#32794b">A</text></g></svg>
